Coordinates
version=1
nRows=38
nColumns=38
inDegrees=no

Units are S.I. units (second, meters, Newtons, ...)
If the header above contains a line with 'inDegrees', this indicates whether rotational values are in degrees (yes) or radians (no).

endheader
time	pelvis_tilt	pelvis_list	pelvis_rotation	pelvis_tx	pelvis_ty	pelvis_tz	hip_flexion_r	hip_adduction_r	hip_rotation_r	knee_angle_r	ankle_angle_r	subtalar_angle_r	mtp_angle_r	hip_flexion_l	hip_adduction_l	hip_rotation_l	knee_angle_l	ankle_angle_l	subtalar_angle_l	mtp_angle_l	lumbar_extension	lumbar_bending	lumbar_rotation	arm_flex_r	arm_add_r	arm_rot_r	elbow_flex_r	pro_sup_r	wrist_flex_r	wrist_dev_r	arm_flex_l	arm_add_l	arm_rot_l	elbow_flex_l	pro_sup_l	wrist_flex_l	wrist_dev_l
63.72	0.140348	1.35568	1.26025	0.712668	0.185743	0.956785	0.601549	-0.202389	-0.460397	0.876345	0.266767	0	0	0.450845	-0.397833	-0.698132	0.786516	0.338959	0	0	-0.381876	-0.0695937	0.212924	0.385614	-0.306293	-0.148371	0.630577	1.36244	0	0	0.407205	-0.375924	0.229318	0.62612	1.21682	0	0
63.73	0.158928	1.35315	1.24745	0.712733	0.184523	0.95232	0.611306	-0.20703	-0.468693	0.898143	0.277659	0	0	0.465934	-0.416654	-0.698132	0.81996	0.350885	0	0	-0.393076	-0.0673963	0.214191	0.39953	-0.311928	-0.149854	0.634122	1.34656	0	0	0.430852	-0.378263	0.234574	0.621979	1.213	0	0
63.74	0.178281	1.35146	1.23373	0.712816	0.183416	0.947722	0.621325	-0.212284	-0.475697	0.922284	0.287466	0	0	0.480329	-0.435893	-0.698132	0.854148	0.361666	0	0	-0.40453	-0.0652943	0.215309	0.414635	-0.317726	-0.149117	0.635169	1.32367	0	0	0.454251	-0.380931	0.24073	0.618327	1.20625	0	0
63.75	0.198443	1.35075	1.21823	0.713077	0.182272	0.943052	0.63192	-0.217926	-0.480234	0.949273	0.29595	0	0	0.493301	-0.455118	-0.698132	0.888039	0.372345	0	0	-0.41651	-0.0635924	0.216839	0.430737	-0.323771	-0.145514	0.634239	1.29676	0	0	0.477394	-0.383747	0.246907	0.614539	1.19883	0	0
63.76	0.220701	1.3485	1.20974	0.711915	0.180836	0.938574	0.641547	-0.227944	-0.489316	0.973296	0.302569	0	0	0.511859	-0.470307	-0.698132	0.917166	0.375398	0	0	-0.431719	-0.055435	0.210593	0.451244	-0.334089	-0.138843	0.632971	1.26419	0	0	0.50362	-0.384086	0.25603	0.61269	1.19049	0	0
63.77	0.2363	1.34893	1.19651	0.712158	0.17981	0.933825	0.653472	-0.234961	-0.490208	1.00307	0.308612	0	0	0.522902	-0.487119	-0.698132	0.948067	0.384128	0	0	-0.444182	-0.0554339	0.212118	0.469489	-0.339388	-0.133029	0.629074	1.23632	0	0	0.525394	-0.387618	0.262479	0.610711	1.18254	0	0
63.78	0.252738	1.34933	1.18142	0.712447	0.178897	0.929053	0.665037	-0.241086	-0.490704	1.03137	0.313822	0	0	0.53324	-0.50393	-0.698132	0.97778	0.393019	0	0	-0.456367	-0.055563	0.21371	0.488315	-0.343808	-0.128563	0.624011	1.20717	0	0	0.546294	-0.391496	0.268585	0.608968	1.17399	0	0
63.79	0.269321	1.34923	1.16562	0.712875	0.178026	0.924211	0.676145	-0.246714	-0.492344	1.05771	0.318531	0	0	0.543401	-0.520564	-0.698132	1.0063	0.402821	0	0	-0.467571	-0.0555924	0.214992	0.506929	-0.347474	-0.123528	0.618322	1.17528	0	0	0.566088	-0.395706	0.274744	0.607739	1.16472	0	0
63.8	0.283356	1.34835	1.15256	0.713203	0.177298	0.919241	0.686953	-0.252981	-0.495931	1.0829	0.324231	0	0	0.554178	-0.536417	-0.698132	1.03371	0.412943	0	0	-0.477326	-0.0555677	0.215399	0.524697	-0.350369	-0.119049	0.613238	1.13983	0	0	0.584902	-0.400322	0.281562	0.606857	1.1553	0	0
63.81	0.294567	1.34676	1.14239	0.713575	0.176544	0.914124	0.697383	-0.259633	-0.500976	1.10652	0.331233	0	0	0.565479	-0.551467	-0.698132	1.06005	0.422831	0	0	-0.485755	-0.0556457	0.215313	0.541277	-0.352702	-0.115255	0.609385	1.10265	0	0	0.60306	-0.405181	0.28933	0.606184	1.14692	0	0
63.82	0.303757	1.34491	1.13421	0.713873	0.175863	0.908878	0.707507	-0.266279	-0.506327	1.12904	0.339375	0	0	0.577083	-0.566104	-0.698132	1.08591	0.432514	0	0	-0.493325	-0.0558633	0.215093	0.556564	-0.354871	-0.111684	0.607218	1.06455	0	0	0.62084	-0.409985	0.297772	0.605623	1.13983	0	0
63.83	0.311295	1.34308	1.12771	0.714185	0.175162	0.903515	0.717656	-0.272946	-0.51103	1.15125	0.348068	0	0	0.588908	-0.580609	-0.698132	1.11193	0.441426	0	0	-0.500426	-0.0563137	0.214801	0.570649	-0.357123	-0.108024	0.607172	1.02674	0	0	0.638638	-0.414599	0.30752	0.604993	1.13409	0	0
63.84	0.317742	1.34149	1.12247	0.714508	0.174496	0.898108	0.727848	-0.279432	-0.514497	1.17332	0.356803	0	0	0.600862	-0.595276	-0.698132	1.13842	0.448728	0	0	-0.50756	-0.0570058	0.214424	0.583678	-0.359325	-0.10359	0.610007	0.992089	0	0	0.656774	-0.419098	0.318756	0.604512	1.12983	0	0
63.85	0.321759	1.33997	1.1199	0.714883	0.17378	0.892699	0.738701	-0.286047	-0.516401	1.19537	0.364906	0	0	0.613416	-0.609795	-0.698132	1.16531	0.453623	0	0	-0.514668	-0.0582748	0.213887	0.596085	-0.361734	-0.0985057	0.614342	0.964137	0	0	0.675331	-0.423516	0.331212	0.605361	1.12782	0	0
63.86	0.32415	1.33874	1.11861	0.715284	0.173034	0.887327	0.750291	-0.292375	-0.516156	1.21768	0.372108	0	0	0.625831	-0.624365	-0.698132	1.19247	0.45877	0	0	-0.522022	-0.0603366	0.213946	0.608055	-0.364829	-0.0912673	0.619538	0.939794	0	0	0.694566	-0.427834	0.345727	0.607184	1.12843	0	0
63.87	0.32203	1.337	1.12188	0.715648	0.172266	0.881917	0.763617	-0.299239	-0.514406	1.24029	0.378388	0	0	0.639232	-0.638204	-0.698132	1.21918	0.462046	0	0	-0.528599	-0.0631524	0.213838	0.619397	-0.367942	-0.0849285	0.626103	0.920369	0	0	0.713769	-0.431686	0.360489	0.609915	1.13297	0	0
63.88	0.317661	1.33467	1.12718	0.716027	0.171414	0.876508	0.77827	-0.305916	-0.511368	1.26284	0.384103	0	0	0.653223	-0.651786	-0.698132	1.24522	0.464308	0	0	-0.53468	-0.066219	0.213845	0.630641	-0.37116	-0.0793611	0.633647	0.905536	0	0	0.732559	-0.434871	0.373028	0.613545	1.1383	0	0
63.89	0.311175	1.3318	1.13428	0.716419	0.170531	0.871112	0.793907	-0.312623	-0.507935	1.28481	0.389148	0	0	0.667687	-0.664942	-0.698132	1.27049	0.465704	0	0	-0.540194	-0.069461	0.213888	0.642075	-0.374514	-0.0733379	0.641131	0.896479	0	0	0.751018	-0.437569	0.383604	0.617567	1.14292	0	0
63.9	0.304043	1.32846	1.14147	0.716759	0.169723	0.865777	0.809953	-0.318875	-0.504592	1.3056	0.393458	0	0	0.682337	-0.677817	-0.698132	1.29472	0.467187	0	0	-0.545412	-0.0725083	0.214165	0.654157	-0.378275	-0.0665252	0.648452	0.891192	0	0	0.768838	-0.43954	0.391577	0.621772	1.1471	0	0
63.91	0.296478	1.32501	1.14823	0.717154	0.16881	0.860515	0.825973	-0.324531	-0.501146	1.32583	0.397125	0	0	0.6962	-0.690315	-0.698132	1.3176	0.469498	0	0	-0.550588	-0.075779	0.214843	0.666474	-0.381781	-0.0593355	0.656237	0.887214	0	0	0.785829	-0.440965	0.397263	0.626723	1.15046	0	0
63.92	0.287257	1.32108	1.1564	0.717499	0.167826	0.855261	0.842465	-0.330205	-0.497808	1.34553	0.400367	0	0	0.710115	-0.701814	-0.698132	1.33902	0.472464	0	0	-0.555211	-0.0790213	0.215421	0.679019	-0.385151	-0.0526139	0.66432	0.883086	0	0	0.802022	-0.442067	0.401812	0.632546	1.15455	0	0
63.93	0.277038	1.31669	1.16603	0.717749	0.166823	0.849988	0.859235	-0.336485	-0.495005	1.36459	0.403574	0	0	0.724315	-0.712147	-0.698132	1.35903	0.476463	0	0	-0.559195	-0.0818204	0.215438	0.691899	-0.389004	-0.0449569	0.671336	0.880434	0	0	0.817546	-0.442855	0.405818	0.638039	1.15967	0	0
63.94	0.266309	1.31216	1.17696	0.717936	0.165809	0.844715	0.875942	-0.343636	-0.492774	1.38348	0.406669	0	0	0.738538	-0.721233	-0.698132	1.37783	0.480887	0	0	-0.562884	-0.0841571	0.214617	0.705255	-0.39287	-0.0368644	0.677814	0.876145	0	0	0.832506	-0.443243	0.409268	0.643726	1.1649	0	0
63.95	0.255566	1.30711	1.18815	0.718118	0.164732	0.83944	0.893082	-0.350485	-0.490336	1.40155	0.409746	0	0	0.753258	-0.729899	-0.698132	1.3957	0.482141	0	0	-0.565911	-0.0861594	0.21337	0.718873	-0.397724	-0.0235985	0.684118	0.864236	0	0	0.846724	-0.443919	0.412454	0.651384	1.1578	0	0
63.96	0.245912	1.30286	1.19865	0.718239	0.163777	0.834315	0.908778	-0.357527	-0.488026	1.41899	0.413229	0	0	0.766485	-0.73751	-0.698132	1.41236	0.483765	0	0	-0.569626	-0.088079	0.211851	0.733065	-0.401835	-0.0116061	0.687848	0.86707	0	0	0.86131	-0.443636	0.413256	0.657815	1.14876	0	0
63.97	0.236739	1.29895	1.20853	0.718377	0.162836	0.829277	0.923637	-0.364223	-0.485627	1.43577	0.417382	0	0	0.778677	-0.744371	-0.698132	1.42791	0.485749	0	0	-0.573384	-0.0900671	0.210385	0.74741	-0.406151	0.00326077	0.690407	0.871545	0	0	0.87549	-0.442688	0.411594	0.663465	1.138	0	0
63.98	0.228151	1.29533	1.21731	0.718511	0.16197	0.824356	0.937687	-0.370221	-0.483225	1.45157	0.421954	0	0	0.789837	-0.750848	-0.698132	1.44242	0.488028	0	0	-0.577086	-0.0923499	0.209484	0.761948	-0.410277	0.0168644	0.692127	0.873165	0	0	0.889345	-0.441225	0.409449	0.669097	1.12759	0	0
63.99	0.219534	1.29207	1.22576	0.71867	0.161152	0.81958	0.950882	-0.375837	-0.480752	1.46635	0.426923	0	0	0.800055	-0.756782	-0.698132	1.45619	0.490417	0	0	-0.580829	-0.0951015	0.209216	0.776193	-0.413293	0.0253669	0.693789	0.875804	0	0	0.903385	-0.437682	0.402144	0.672492	1.14537	0	0
64	0.209806	1.28842	1.23499	0.718812	0.160278	0.814837	0.964578	-0.381137	-0.477807	1.48045	0.431902	0	0	0.81068	-0.762223	-0.698132	1.46954	0.492769	0	0	-0.583675	-0.0981144	0.208886	0.790487	-0.417036	0.0377791	0.695233	0.876174	0	0	0.916823	-0.435051	0.398875	0.677711	1.13582	0	0
64.01	0.199114	1.28484	1.24543	0.718858	0.159452	0.810172	0.978197	-0.387025	-0.474872	1.49424	0.436652	0	0	0.821417	-0.766973	-0.698132	1.4827	0.494964	0	0	-0.586226	-0.101198	0.208186	0.804768	-0.420416	0.0497877	0.696181	0.876876	0	0	0.930318	-0.432249	0.396248	0.68236	1.12525	0	0
64.02	0.187442	1.28127	1.25651	0.718909	0.158615	0.805584	0.992006	-0.392827	-0.471404	1.50772	0.441128	0	0	0.83209	-0.771506	-0.698132	1.49593	0.496868	0	0	-0.588467	-0.104659	0.207609	0.818968	-0.423438	0.0612103	0.696939	0.877484	0	0	0.94375	-0.429322	0.393834	0.686692	1.11445	0	0
64.03	0.175424	1.27782	1.26754	0.718977	0.157773	0.801103	1.00581	-0.398368	-0.4674	1.52084	0.445331	0	0	0.842552	-0.776136	-0.698132	1.50925	0.498436	0	0	-0.590597	-0.108409	0.207235	0.833204	-0.426328	0.072208	0.697297	0.878728	0	0	0.95726	-0.426271	0.391136	0.69053	1.1035	0	0
64.04	0.163413	1.27457	1.27826	0.719055	0.156926	0.79674	1.01955	-0.40373	-0.462997	1.53377	0.449065	0	0	0.852868	-0.780901	-0.698132	1.52267	0.499591	0	0	-0.59285	-0.11225	0.20697	0.847739	-0.42888	0.0826618	0.697857	0.877989	0	0	0.970765	-0.422985	0.387055	0.69415	1.09041	0	0
64.05	0.139753	1.27287	1.29402	0.720046	0.156582	0.791917	1.03783	-0.407175	-0.451227	1.55163	0.454414	0	0	0.857334	-0.786113	-0.698132	1.53857	0.507886	0	0	-0.590322	-0.124307	0.209284	0.856593	-0.427383	0.0907826	0.698088	0.874931	0	0	0.980986	-0.421216	0.379767	0.69711	1.07561	0	0
64.06	0.12899	1.27088	1.30312	0.720138	0.155748	0.787961	1.05016	-0.411991	-0.44642	1.56397	0.457182	0	0	0.866181	-0.791219	-0.698132	1.55192	0.508154	0	0	-0.594206	-0.128266	0.209061	0.872141	-0.42966	0.102269	0.698366	0.871495	0	0	0.994435	-0.418092	0.377306	0.700279	1.06163	0	0
64.07	0.116952	1.26853	1.31356	0.720227	0.154898	0.78413	1.06296	-0.416845	-0.441381	1.57577	0.459215	0	0	0.875421	-0.795674	-0.698132	1.56472	0.508268	0	0	-0.597692	-0.132459	0.208251	0.887767	-0.431434	0.113253	0.698426	0.869655	0	0	1.00806	-0.415212	0.373298	0.703292	1.04737	0	0
64.08	0.105731	1.26574	1.32319	0.72027	0.15409	0.780438	1.07559	-0.421127	-0.436507	1.58669	0.461345	0	0	0.884835	-0.800218	-0.698132	1.57696	0.508297	0	0	-0.600619	-0.136204	0.207417	0.902964	-0.432729	0.12285	0.699047	0.869061	0	0	1.02097	-0.412395	0.369938	0.70677	1.03407	0	0
64.09	0.0955889	1.26246	1.3319	0.720267	0.153298	0.776897	1.08807	-0.424977	-0.431953	1.59671	0.463607	0	0	0.894548	-0.804445	-0.698132	1.58826	0.508379	0	0	-0.602957	-0.139312	0.206664	0.917562	-0.433778	0.131126	0.701217	0.868399	0	0	1.03318	-0.409496	0.367063	0.710173	1.02223	0	0
